<svg width="1080" height="1080" viewBox="0 0 1080 1080" fill="none" xmlns="http://www.w3.org/2000/svg">
<g clip-path="url(#clip0_4518_549)">
<g filter="url(#filter0_iii_4518_549)">
<mask id="mask0_4518_549" style="mask-type:luminance" maskUnits="userSpaceOnUse" x="0" y="0" width="1080" height="1080">
<path d="M810 0H270C120.883 0 0 120.883 0 270V810C0 959.117 120.883 1080 270 1080H810C959.117 1080 1080 959.117 1080 810V270C1080 120.883 959.117 0 810 0Z" fill="white" style="fill:white;fill-opacity:1;"/>
</mask>
<g mask="url(#mask0_4518_549)">
<path d="M810 0H270C120.883 0 0 120.883 0 270V810C0 959.117 120.883 1080 270 1080H810C959.117 1080 1080 959.117 1080 810V270C1080 120.883 959.117 0 810 0Z" fill="#1570EF" style="fill:#1570EF;fill:color(display-p3 0.0824 0.4392 0.9373);fill-opacity:1;"/>
<path d="M1080 0H0V1080H1080V0Z" fill="url(#paint0_linear_4518_549)"/>
<g filter="url(#filter1_d_4518_549)">
<path opacity="0.7" d="M286.875 830.626C286.875 856.514 307.861 877.5 333.749 877.5H746.251C772.139 877.5 793.125 856.514 793.125 830.626V708.75C793.125 568.953 679.797 455.625 540 455.625C400.203 455.625 286.875 568.953 286.875 708.75V830.626Z" fill="url(#paint1_linear_4518_549)"/>
<path d="M286.875 249.374C286.875 223.487 307.861 202.5 333.749 202.5H746.251C772.139 202.5 793.125 223.487 793.125 249.374V371.25C793.125 511.047 679.797 624.375 540 624.375C400.203 624.375 286.875 511.047 286.875 371.25V249.374Z" fill="url(#paint2_linear_4518_549)"/>
</g>
</g>
<path d="M810 22.5H270C133.31 22.5 22.5 133.31 22.5 270V810C22.5 946.69 133.31 1057.5 270 1057.5H810C946.69 1057.5 1057.5 946.69 1057.5 810V270C1057.5 133.31 946.69 22.5 810 22.5Z" stroke="url(#paint3_linear_4518_549)" stroke-width="44"/>
</g>
</g>
<defs>
<filter id="filter0_iii_4518_549" x="0" y="-3" width="1080" height="1086" filterUnits="userSpaceOnUse" color-interpolation-filters="sRGB">
<feFlood flood-opacity="0" result="BackgroundImageFix"/>
<feBlend mode="normal" in="SourceGraphic" in2="BackgroundImageFix" result="shape"/>
<feColorMatrix in="SourceAlpha" type="matrix" values="0 0 0 0 0 0 0 0 0 0 0 0 0 0 0 0 0 0 127 0" result="hardAlpha"/>
<feOffset dy="-3"/>
<feGaussianBlur stdDeviation="1.5"/>
<feComposite in2="hardAlpha" operator="arithmetic" k2="-1" k3="1"/>
<feColorMatrix type="matrix" values="0 0 0 0 0 0 0 0 0 0 0 0 0 0 0 0 0 0 0.1 0"/>
<feBlend mode="normal" in2="shape" result="effect1_innerShadow_4518_549"/>
<feColorMatrix in="SourceAlpha" type="matrix" values="0 0 0 0 0 0 0 0 0 0 0 0 0 0 0 0 0 0 127 0" result="hardAlpha"/>
<feOffset dy="3"/>
<feGaussianBlur stdDeviation="1.5"/>
<feComposite in2="hardAlpha" operator="arithmetic" k2="-1" k3="1"/>
<feColorMatrix type="matrix" values="0 0 0 0 1 0 0 0 0 1 0 0 0 0 1 0 0 0 0.1 0"/>
<feBlend mode="normal" in2="effect1_innerShadow_4518_549" result="effect2_innerShadow_4518_549"/>
<feColorMatrix in="SourceAlpha" type="matrix" values="0 0 0 0 0 0 0 0 0 0 0 0 0 0 0 0 0 0 127 0" result="hardAlpha"/>
<feOffset/>
<feGaussianBlur stdDeviation="2"/>
<feComposite in2="hardAlpha" operator="arithmetic" k2="-1" k3="1"/>
<feColorMatrix type="matrix" values="0 0 0 0 0 0 0 0 0 0 0 0 0 0 0 0 0 0 0.2 0"/>
<feBlend mode="normal" in2="effect2_innerShadow_4518_549" result="effect3_innerShadow_4518_549"/>
</filter>
<filter id="filter1_d_4518_549" x="282.375" y="200.25" width="515.25" height="684" filterUnits="userSpaceOnUse" color-interpolation-filters="sRGB">
<feFlood flood-opacity="0" result="BackgroundImageFix"/>
<feColorMatrix in="SourceAlpha" type="matrix" values="0 0 0 0 0 0 0 0 0 0 0 0 0 0 0 0 0 0 127 0" result="hardAlpha"/>
<feOffset dy="2.25"/>
<feGaussianBlur stdDeviation="2.25"/>
<feComposite in2="hardAlpha" operator="out"/>
<feColorMatrix type="matrix" values="0 0 0 0 0.141176 0 0 0 0 0.141176 0 0 0 0 0.141176 0 0 0 0.1 0"/>
<feBlend mode="normal" in2="BackgroundImageFix" result="effect1_dropShadow_4518_549"/>
<feBlend mode="normal" in="SourceGraphic" in2="effect1_dropShadow_4518_549" result="shape"/>
</filter>
<linearGradient id="paint0_linear_4518_549" x1="540" y1="1.20699e-05" x2="585" y2="1080" gradientUnits="userSpaceOnUse">
<stop stop-color="white" stop-opacity="0" style="stop-color:none;stop-opacity:0;"/>
<stop offset="1" stop-color="white" stop-opacity="0.12" style="stop-color:white;stop-opacity:0.12;"/>
</linearGradient>
<linearGradient id="paint1_linear_4518_549" x1="540" y1="455.625" x2="540" y2="877.5" gradientUnits="userSpaceOnUse">
<stop stop-color="white" stop-opacity="0.8" style="stop-color:white;stop-opacity:0.8;"/>
<stop offset="1" stop-color="white" stop-opacity="0.5" style="stop-color:white;stop-opacity:0.5;"/>
</linearGradient>
<linearGradient id="paint2_linear_4518_549" x1="540" y1="202.5" x2="540" y2="624.375" gradientUnits="userSpaceOnUse">
<stop stop-color="white" stop-opacity="0.8" style="stop-color:white;stop-opacity:0.8;"/>
<stop offset="1" stop-color="white" stop-opacity="0.5" style="stop-color:white;stop-opacity:0.5;"/>
</linearGradient>
<linearGradient id="paint3_linear_4518_549" x1="540" y1="-1.13702e-06" x2="540" y2="1080" gradientUnits="userSpaceOnUse">
<stop stop-color="white" stop-opacity="0.12" style="stop-color:white;stop-opacity:0.12;"/>
<stop offset="1" stop-color="white" stop-opacity="0" style="stop-color:none;stop-opacity:0;"/>
</linearGradient>
<clipPath id="clip0_4518_549">
<rect width="1080" height="1080" fill="white" style="fill:white;fill-opacity:1;"/>
</clipPath>
</defs>
</svg>
